<?xml version="1.0" encoding="utf-8"?>
<!-- Generator: Adobe Illustrator 22.0.1, SVG Export Plug-In . SVG Version: 6.00 Build 0)  -->
<svg version="1.1" id="圖層_1" xmlns="http://www.w3.org/2000/svg" xmlns:xlink="http://www.w3.org/1999/xlink" x="0px" y="0px"
	 viewBox="0 0 100 50" style="enable-background:new 0 0 100 50;" xml:space="preserve">
<style type="text/css">
	.st0{fill:#FFFFFF;}
</style>
<g>
	<g>
		<path class="st0" d="M80.5,0c0.8,0.2,1.6,0.5,2.4,0.6c11.8,2.2,18.3,16.3,12,26.5C84.5,21.3,74.1,15.5,63.6,9.6
			c2.8-5,6.9-7.7,12-8.9C76.4,0.5,77.2,0.3,78,0C78.8,0,79.7,0,80.5,0z"/>
		<path class="st0" d="M23.2,0c4.7,1,9.3,2.4,12.5,6.3c0.8,1,1.5,2,2.5,3.2c-10.7,6-21,11.8-31.4,17.6C0.7,18.3,5.5,3.5,18.5,0.7
			c0.9-0.2,1.8-0.4,2.7-0.7C21.9,0,22.5,0,23.2,0z"/>
	</g>
	<g>
		<path class="st0" d="M13.8,50C19.1,34.6,33,24.3,50.7,24.3C68.7,24.2,83,34.5,88.4,50H101c-5.6-19.3-22-34.7-42.9-37.8
			c-2-0.3-2.4-1-2.4-2.8c-0.1-6.5-0.2-6.5-6.7-6.1c-1.8,0.1-2.3,0.8-2.4,2.5c-0.2,5.8-0.3,5.7-5.8,6.9c-19.1,4.1-34.5,19-39.9,37.2
			L13.8,50L13.8,50z"/>
		<path class="st0" d="M61.1,50l5.2-13.3c1.3-3.4,1.2-6.6-0.2-7.1c-1.4-0.5-3.6,1.8-4.9,5.2L56,48.4V39c0-3-2.5-5.5-5.5-5.5
			S45,36,45,39v11H61.1z"/>
	</g>
</g>
</svg>
