<?xml version="1.0" encoding="utf-8"?>
<!-- Generator: Adobe Illustrator 22.0.1, SVG Export Plug-In . SVG Version: 6.00 Build 0)  -->
<svg version="1.1" id="圖層_1" xmlns="http://www.w3.org/2000/svg" xmlns:xlink="http://www.w3.org/1999/xlink" x="0px" y="0px"
	 viewBox="0 0 100 100" style="enable-background:new 0 0 100 100;" xml:space="preserve">
<style type="text/css">
	.st0{fill:#E20680;}
</style>
<g>
	<g>
		<g id="XMLID_4_">
			<g>
				<path class="st0" d="M87.3,83.4c1.8,1.8,2.7,4.2,2.7,6.6c-0.1,2.5-1.2,4.8-2.9,6.4c-1.7,1.6-4,2.7-6.4,2.7s-4.8-1.1-6.6-2.9
					c-1.8-1.8-2.7-4.2-2.7-6.6c0.1-4.9,4.3-9.1,9.3-9.1C83.1,80.6,85.5,81.6,87.3,83.4z"/>
				<path class="st0" d="M40.4,83.3c1.8,1.8,2.7,4.2,2.7,6.7s-1.1,4.8-2.7,6.5c-1.7,1.6-4,2.7-6.4,2.7c-2.5,0-4.7-1-6.5-2.8
					s-2.8-4.2-2.7-6.6c0.1-4.9,4.3-9.1,9.2-9.1C36.3,80.6,38.6,81.6,40.4,83.3z"/>
				<path class="st0" d="M67.2,37.1v-11H52.5V37L67.2,37.1L67.2,37.1z M67.2,54.2v-11H52.5V56L67.2,54.2z M73.4,37.2h2.2
					c3.7,0,7.2,0,10.8,0c0.1,0,0.3-0.1,0.4-0.2c0.6-3.1,1.2-6.2,1.8-9.3l0.3-1.5H73.4V37.2z M85.5,43.3H73.4v10.2l1.6-0.2
					c2.9-0.4,5.6-0.7,8.4-1.1c0.1-0.1,0.4-0.4,0.4-0.5c0.5-2.3,0.9-4.7,1.4-7.1L85.5,43.3z M46.4,56.7V43.3H33.7L38,57.8L46.4,56.7z
					 M30.3,32.2c1.5,5,1.5,5,6.7,5h9.3v-11h-16c0.5-1,0.9-2.2,0.9-3.4c0-3.7-2.9-6.7-6.4-7v-0.1h68.7c2.8,0,4.5,0.6,5.6,1.8
					c1,1.3,1.2,3.1,0.7,5.8c-2.1,10.8-4.1,21.6-6.2,32.4c-0.9,4.9-2,5.9-6.9,6.5l-1,0.1c-16.1,2-32.9,4-49.3,5.9
					c-1.1,0.1-1.3,0.4-1.4,1.2c-0.1,0.4,0,0.6,0.1,0.8c0.2,0.2,0.5,0.3,0.9,0.3c3.2,0,6.5-0.2,9.6-0.3l1.2-0.1
					c7.2-0.4,14.4-0.7,21.6-1l18.3-0.9c3-0.1,4.2,1.5,4.6,2.9c0.5,1.3,0.3,2.6-0.5,3.6c-0.8,1.2-2.3,1.9-4.1,1.9
					c-1.6,0-3.4,0.1-5,0.1c-3.7,0.1-7.4,0.1-11.1,0.3c-5.7,0.3-11.4,0.7-17,1.1c-4.7,0.3-9.3,0.6-13.9,0.9c-0.5,0-1,0.1-1.5,0.1
					c-1.5,0-2.9-0.2-4.2-0.5c-3.3-0.8-5.7-2.5-7-4.8c-1.1-2.2-1.2-4.9-0.1-7.7c1.3-3.4,0.9-6.3-0.2-10.1c-3.2-10.5-6.3-21-9.2-30.8
					c1.1,2.5,3.6,4.3,6.4,4.3c1.9,0,3.7-0.8,4.9-2C29.5,29.3,29.9,30.8,30.3,32.2z"/>
				<path class="st0" d="M31.1,22.8c0,1.2-0.4,2.4-0.9,3.4h-1.7c0.2,0.5,0.4,1.1,0.5,1.6c-1.2,1.2-3,2-4.9,2c-2.9,0-5.3-1.8-6.4-4.3
					c-0.2-0.5-0.3-1-0.4-1.5c-0.1-0.4-0.2-0.9-0.2-1.3c0-3.4,2.4-6.2,5.5-6.9l2.1,0.8v-0.9C28.3,16.1,31.1,19.1,31.1,22.8z"/>
			</g>
		</g>
	</g>
	<path class="st0" d="M30.5,51.2c-2.7,0.8-5.6-0.7-6.3-3.3l-11-37.4c-0.8-2.6,0.8-5.4,3.6-6.2l0,0c2.7-0.8,5.6,0.7,6.3,3.3l11,37.4
		C34.8,47.7,33.2,50.4,30.5,51.2L30.5,51.2z"/>
	<path class="st0" d="M22.6,8.1c-0.3,1.6-1.6,2.7-2.9,2.5l-18-3.8C0.5,6.6-0.3,5,0.1,3.4l0,0C0.4,1.8,1.7,0.6,3,0.9l17.9,3.8
		C22.2,5,22.9,6.5,22.6,8.1L22.6,8.1z"/>
</g>
</svg>
