<?xml version="1.0" encoding="utf-8"?>
<!-- Generator: Adobe Illustrator 22.0.1, SVG Export Plug-In . SVG Version: 6.00 Build 0)  -->
<svg version="1.1" id="圖層_1" xmlns="http://www.w3.org/2000/svg" xmlns:xlink="http://www.w3.org/1999/xlink" x="0px" y="0px"
	 viewBox="0 0 100 50" style="enable-background:new 0 0 100 50;" xml:space="preserve">
<style type="text/css">
	.st0{fill:#FFFFFF;}
</style>
<path class="st0" d="M88.5,28.9c-5.8,0-11.7,0-17.5,0c-19.6,0-39.1,0-58.7,0C6.5,28.9,2,31.5,1,36.1C0.1,40.5,0.3,45.3,0,50h100
	c0-3.4,0-6.6,0-9.8C99.9,33.4,95.5,28.9,88.5,28.9z M18.1,43c-2.4,0-4.6,0-7.1,0c0-2.4,0-4.6,0-7.1c2.3,0,4.6,0,7.1,0
	C18.1,38.2,18.1,40.6,18.1,43z M36,43c-2.4,0-4.6,0-7.1,0c0-2.6,0-4.7,0-7.1c2.4,0,4.6,0,7.1,0C36,38.3,36,40.6,36,43z M53.8,43.1
	c-2.4,0-4.7,0-7.2,0c0-2.5,0-4.7,0-7.2c2.4,0,4.6,0,7.2,0C53.8,38.4,53.8,40.7,53.8,43.1z M71.8,43c-2.3,0-4.6,0-7.1,0
	c0-2.6,0-4.7,0-7.1c2.4,0,4.6,0,7.1,0C71.8,38.3,71.8,40.6,71.8,43z M89.3,43c-2.3,0-4.6,0-7.1,0c0-2.6,0-4.7,0-7.1
	c2.4,0,4.6,0,7.1,0C89.3,38.2,89.3,40.6,89.3,43z"/>
</svg>
