<?xml version="1.0" encoding="utf-8"?>
<!-- Generator: Adobe Illustrator 22.0.1, SVG Export Plug-In . SVG Version: 6.00 Build 0)  -->
<svg version="1.1" id="圖層_1" xmlns="http://www.w3.org/2000/svg" xmlns:xlink="http://www.w3.org/1999/xlink" x="0px" y="0px"
	 viewBox="0 0 80 50" style="enable-background:new 0 0 80 50;" xml:space="preserve">
<style type="text/css">
	.st0{fill-rule:evenodd;clip-rule:evenodd;fill:#E20680;}
</style>
<g>
	<path class="st0" d="M42.3,0c1.1,0.2,2.3,0.4,3.4,0.7C52.9,2.5,58,8.1,58.1,14.1c0,3.1,0,6.2,0,9.2c0,1.7-1.2,2.9-2.9,2.9
		c-1.8,0-3.1-1.1-3.1-3c0-3.1,0-6.2,0-9.2c0-5.2-5.5-9.3-12.1-9.3C33.4,4.8,28,8.9,28,14c0,3.1,0,6.2,0,9.2c0,1.8-1.3,3-3.1,2.9
		c-1.8,0-2.9-1.2-2.9-2.9c0.1-3.8-0.2-7.6,0.4-11.3c0.9-6.1,7-10.7,14.7-11.8c0.2,0,0.4-0.2,0.7-0.2C39.3,0,40.8,0,42.3,0z"/>
	<path class="st0" d="M61.1,19.1c4.2,0,8.3-0.1,12.3,0c1.7,0.1,2.5,1.1,2.7,2.4c0.4,3.3,1,6.6,1.4,9.9c0.8,6,1.6,11.9,2.4,17.9
		c0,0.2,0,0.4,0,0.6c-26.6,0-53.2,0-80,0c0.5-3.6,1-7.2,1.5-10.8c0.7-5,1.4-10,2.1-15.1c0.1-1,0.2-2,0.4-3c0.3-1.2,1.2-2,2.8-2.1
		c4-0.1,8,0,12.2,0c0,1.6,0,3.2,0,4.7c0,2.8,2.6,4.8,6,4.9c3.5,0,6.1-2,6.1-4.9c0-1.5,0-3,0-4.5c6,0,11.9,0,18,0c0,1.5,0,3,0,4.5
		c0,2.9,2.6,5,6,4.9c3.5,0,6-2.1,6-5C61.1,22.2,61.1,20.7,61.1,19.1z"/>
</g>
</svg>
