<?xml version="1.0" encoding="utf-8"?>
<!-- Generator: Adobe Illustrator 22.0.1, SVG Export Plug-In . SVG Version: 6.00 Build 0)  -->
<svg version="1.1" id="圖層_1" xmlns="http://www.w3.org/2000/svg" xmlns:xlink="http://www.w3.org/1999/xlink" x="0px" y="0px"
	 viewBox="0 0 100 100" style="enable-background:new 0 0 100 100;" xml:space="preserve">
<style type="text/css">
	.st0{fill:#9B8579;}
</style>
<g>
	<path class="st0" d="M50,99.8c-14.1,0-28.1,0-42.2,0c-5.5,0-8-2.6-7.8-8.1C0.4,80,10.2,62.2,21.7,60.3c2.7-0.4,4.7-0.2,6.9,1.8
		c3.5,3.3,8.1,4.5,12.8,5.2c8,1.3,16,1.2,23.6-1.7c3-1.1,5.5-3.3,8.3-4.9c0.8-0.5,1.9-0.8,2.8-0.8C89,61,99.6,79,100,92
		c0.2,4.9-2.5,7.7-7.4,7.7C78.4,99.8,64.2,99.8,50,99.8z"/>
	<path class="st0" d="M24.3,27.9C24.6,19.1,28,11,35.7,5.1c10-7.6,22.8-6.3,31.7,3C78.8,19.7,78,40.7,65.9,51.2
		c-11.4,9.9-27.7,7.7-36.2-4.9C26.1,41,24.4,35.1,24.3,27.9z"/>
</g>
</svg>
