<?xml version="1.0" encoding="utf-8"?>
<!-- Generator: Adobe Illustrator 22.0.1, SVG Export Plug-In . SVG Version: 6.00 Build 0)  -->
<svg version="1.1" id="圖層_1" xmlns="http://www.w3.org/2000/svg" xmlns:xlink="http://www.w3.org/1999/xlink" x="0px" y="0px"
	 viewBox="0 0 100 50" style="enable-background:new 0 0 100 50;" xml:space="preserve">
<style type="text/css">
	.st0{fill:#E20680;}
	.st1{fill-rule:evenodd;clip-rule:evenodd;fill:#E20680;}
	.st2{fill-rule:evenodd;clip-rule:evenodd;fill:#FFFFFF;}
</style>
<g>
	<g>
		<g>
			<g>
				<path class="st0" d="M46.9,1.2c1.8-1.5,4.6-1.5,6.4,0l18.9,16.9c1.8,1.5,4.6,1.5,6.4,0l18.1-16c1.8-1.5,3.2-0.8,3.2,1.5v28.1
					c0,2.4-1.9,4.4-4.2,4.4H4.2c-2.3,0-4.2-2-4.2-4.4V3.5C0,1.2,1.5,0.4,3.2,2l18.2,16.1c1.8,1.5,4.6,1.5,6.4,0L46.9,1.2z"/>
			</g>
		</g>
	</g>
	<g>
		<path class="st0" d="M100,45.6c0,2.4-1.9,4.4-4.2,4.4H4.2C2,50,0,48,0,45.6v-0.3c0-2.4,1.9-4.4,4.2-4.4h91.5c2.3,0,4.2,2,4.2,4.4
			v0.3H100z"/>
	</g>
</g>
<g>
	<g>
		<path class="st1" d="M-7.4,39.2c2.4,0,4.5,0,6.6,0c2.8,0,3.4-0.5,3.4-3.3c0-12.4,0-24.7,0-37.1c0-2.6-0.6-3.1-3.3-3.2
			c-2.1,0-4.2,0-7,0c0.3-4.4,0.1-8.8,1-12.9C-5.8-21.6-1.6-24,3.8-24c18.3,0,36.5,0,54.8,0c5.4,0,10.9,0,16.3,0
			c6.5,0,10.6,4.2,10.7,10.6c0,2.9,0,5.8,0,9c-2.4,0-4.6,0-6.9,0c-2.2-0.1-3.1,0.9-3.1,3.1c0.1,12.4,0,24.9,0,37.3
			c0,2.2,0.9,3.2,3.1,3.1c2.2-0.1,4.4,0,7.1,0c-0.2,4.3,0,8.4-0.7,12.5c-0.8,4.5-5,7.2-10.1,7.2c-15.2,0-30.4,0-45.6,0
			c-8.5,0-17,0-25.5,0c-7.1,0-11.2-4.1-11.2-11.1C-7.4,45.1-7.4,42.3-7.4,39.2z M39.1-4.3c-7.8,0-15.6,0-23.4,0
			c-2.7,0-3.3,0.7-3.3,3.3c0,12.2,0,24.4,0,36.6c0,3,0.6,3.6,3.6,3.6c15.4,0,30.9,0,46.3,0c3,0,3.6-0.6,3.6-3.6
			c0-12.1,0-24.2,0-36.4c0-2.9-0.6-3.6-3.6-3.6C54.5-4.3,46.8-4.3,39.1-4.3z M35.8-17.4c0,2.3,0,4.4,0,6.7c2.3,0,4.5,0,6.7,0
			c0-2.3,0-4.4,0-6.7C40.1-17.4,38-17.4,35.8-17.4z M2.6-10.8c2.3,0,4.4,0,6.6,0c0-2.3,0-4.5,0-6.6c-2.3,0-4.5,0-6.6,0
			C2.6-15.1,2.6-13,2.6-10.8z M69-10.8c2.3,0,4.5,0,6.6,0c0-2.3,0-4.5,0-6.6c-2.3,0-4.4,0-6.6,0C69-15.2,69-13.2,69-10.8z M26,52.3
			c0-1.9,0.1-3.7,0-5.5c0-0.4-0.7-1.1-1-1.2c-1.9-0.1-3.8-0.1-5.8-0.1c0,2.5,0,4.5,0,6.7C21.4,52.3,23.5,52.3,26,52.3z M42.5,45.8
			c-2.3,0-4.5,0-6.8,0c0,2.3,0,4.4,0,6.5c2.3,0,4.5,0,6.8,0C42.5,50.1,42.5,48,42.5,45.8z M52.5,52.2c2.2,0,4.4,0,6.5,0
			c0-2.3,0-4.3,0-6.4c-6.6-1.1-7.6-0.2-6.7,6.1C52.3,52,52.4,52.1,52.5,52.2z M9.2,52.3c0-2.3,0-4.4,0-6.5c-2.3,0-4.4,0-6.6,0
			c0,2.3,0,4.3,0,6.5C4.8,52.3,6.9,52.3,9.2,52.3z M69,52.3c2.3,0,4.4,0,6.6,0c0-2.3,0-4.4,0-6.5c-2.3,0-4.4,0-6.6,0
			C69,48,69,50.1,69,52.3z"/>
		<path class="st2" d="M35.8-17.4c2.2,0,4.4,0,6.7,0c0,2.2,0,4.3,0,6.7c-2.2,0-4.4,0-6.7,0C35.8-13,35.8-15.2,35.8-17.4z"/>
		<path class="st2" d="M2.6-10.8c0-2.2,0-4.3,0-6.6c2.1,0,4.2,0,6.6,0c0,2.1,0,4.2,0,6.6C7-10.8,4.8-10.8,2.6-10.8z"/>
		<path class="st2" d="M69-10.8c0-2.4,0-4.4,0-6.6c2.2,0,4.3,0,6.6,0c0,2.2,0,4.3,0,6.6C73.5-10.8,71.3-10.8,69-10.8z"/>
		<path class="st2" d="M52.7-10.8c0-2.4,0-4.4,0-6.6c2.2,0,4.3,0,6.6,0c0,2.2,0,4.3,0,6.6C57.2-10.8,55-10.8,52.7-10.8z"/>
		<path class="st2" d="M19.3-10.8c0-2.4,0-4.4,0-6.6c2.2,0,4.3,0,6.6,0c0,2.2,0,4.3,0,6.6C23.7-10.8,21.6-10.8,19.3-10.8z"/>
		<path class="st2" d="M26,52.3c-2.5,0-4.6,0-6.9,0c0-2.2,0-4.3,0-6.7c1.9,0,3.9-0.1,5.8,0.1c0.4,0,1,0.7,1,1.2
			C26.1,48.6,26,50.4,26,52.3z"/>
		<path class="st2" d="M42.5,45.8c0,2.2,0,4.2,0,6.5c-2.3,0-4.4,0-6.8,0c0-2.1,0-4.2,0-6.5C38,45.8,40.2,45.8,42.5,45.8z"/>
		<path class="st2" d="M52.5,52.2c-0.1-0.2-0.2-0.2-0.2-0.3c-0.8-6.3,0.1-7.2,6.7-6.1c0,2,0,4.1,0,6.4
			C56.9,52.2,54.8,52.2,52.5,52.2z"/>
		<path class="st2" d="M9.2,52.3c-2.3,0-4.4,0-6.6,0c0-2.2,0-4.3,0-6.5c2.2,0,4.3,0,6.6,0C9.2,47.9,9.2,50,9.2,52.3z"/>
		<path class="st2" d="M69,52.3c0-2.2,0-4.3,0-6.5c2.2,0,4.3,0,6.6,0c0,2.1,0,4.2,0,6.5C73.4,52.3,71.3,52.3,69,52.3z"/>
	</g>
	<rect x="-9.7" y="-4.4" class="st2" width="119.4" height="78.4"/>
</g>
</svg>
