<?xml version="1.0" encoding="utf-8"?>
<!-- Generator: Adobe Illustrator 22.0.1, SVG Export Plug-In . SVG Version: 6.00 Build 0)  -->
<svg version="1.1" id="圖層_1" xmlns="http://www.w3.org/2000/svg" xmlns:xlink="http://www.w3.org/1999/xlink" x="0px" y="0px"
	 viewBox="0 0 100 50" style="enable-background:new 0 0 100 50;" xml:space="preserve">
<style type="text/css">
	.st0{fill:#E20680;}
</style>
<g>
	<g>
		<g>
			<g>
				<path class="st0" d="M46.9,1.2c1.8-1.5,4.6-1.5,6.4,0l18.9,16.9c1.8,1.5,4.6,1.5,6.4,0l18.1-16c1.8-1.5,3.2-0.8,3.2,1.5v28.1
					c0,2.4-1.9,4.4-4.2,4.4H4.2c-2.3,0-4.2-2-4.2-4.4V3.5C0,1.2,1.5,0.4,3.2,2l18.2,16.1c1.8,1.5,4.6,1.5,6.4,0L46.9,1.2z"/>
			</g>
		</g>
	</g>
	<g>
		<path class="st0" d="M100,45.6c0,2.4-1.9,4.4-4.2,4.4H4.2C2,50,0,48,0,45.6v-0.3c0-2.4,1.9-4.4,4.2-4.4h91.5c2.3,0,4.2,2,4.2,4.4
			V45.6z"/>
	</g>
</g>
</svg>
