<?xml version="1.0" encoding="utf-8"?>
<!-- Generator: Adobe Illustrator 22.0.1, SVG Export Plug-In . SVG Version: 6.00 Build 0)  -->
<svg version="1.1" id="圖層_1" xmlns="http://www.w3.org/2000/svg" xmlns:xlink="http://www.w3.org/1999/xlink" x="0px" y="0px"
	 viewBox="0 0 100 100" style="enable-background:new 0 0 100 100;" xml:space="preserve">
<style type="text/css">
	.st0{fill:#E40880;}
</style>
<g>
	<g>
		<path class="st0" d="M60.4,74.1c0,8.1,0,16.2,0,24.4c0,1.2-0.2,1.6-1.5,1.6c-6.6-0.1-13.2-0.1-19.8,0c-1.3,0-1.5-0.4-1.5-1.6
			c0-16.1,0-32.2,0.1-48.3c0-1.6-0.5-1.8-1.9-1.8c-3.5,0.1-7.1,0-10.6,0c-0.9,0-1.3-0.2-1.3-1.2c0.1-5.1,0-10.2,0-15.3
			c0-1,0.3-1.2,1.3-1.2c3.3,0,6.5,0,9.8,0c2.4,0,2.4,0,2.4-2.3c0-4.2,0.3-8.4,1.5-12.4c2.9-9.6,8.8-14.4,17.7-15.4
			C62.7-0.2,68.8-0.1,75,0.2c0.8,0,1.1,0.3,1.1,1.1c0,5.1,0,10.2,0.1,15.3c0,0.9-0.3,1-1.1,0.9c-3.3-0.1-6.6-0.1-9.8,0.8
			C63,19,61.6,20.6,61,22.8c-0.6,2.3-0.6,4.6-0.6,6.9c0,1,0.7,0.8,1.2,0.8c4.2,0,8.5,0.1,12.7,0c1.3,0,1.9,0.3,1.8,1.8
			c-0.1,4.8-0.1,9.6,0,14.4c0,1.1-0.3,1.4-1.4,1.4c-4.2-0.1-8.4,0-12.5-0.1c-1.4,0-1.8,0.3-1.8,1.7C60.4,57.9,60.4,66,60.4,74.1z"/>
	</g>
</g>
</svg>
