<?xml version="1.0" encoding="utf-8"?>
<!-- Generator: Adobe Illustrator 22.0.1, SVG Export Plug-In . SVG Version: 6.00 Build 0)  -->
<svg version="1.1" id="圖層_1" xmlns="http://www.w3.org/2000/svg" xmlns:xlink="http://www.w3.org/1999/xlink" x="0px" y="0px"
	 viewBox="0 0 220 100" style="enable-background:new 0 0 220 100;" xml:space="preserve">
<style type="text/css">
	.st0{fill:#E30880;}
</style>
<path class="st0" d="M204,0L204,0h-30.2h-66.9c-4.4,0-7.3,2.1-10.7,5c-0.2,0.2-0.3,0.3-0.5,0.4c-0.2,0.2-0.5,0.4-1.1,1L3.1,77.6
	C0.8,80.4-0.3,84,0,87.6c0.3,3.6,2.1,6.9,4.9,9.2c2.4,2,5.5,3.1,8.7,3.1c4.1,0,7.9-1.8,10.5-4.9l83.3-61.6l66.4,46.2l8.9,6.2
	c8.7,6.2,13.1,9,17.1,11.5c1.4,0.9,2.7,1.7,4.1,2.6v0.1H220V0H204z"/>
</svg>
