<?xml version="1.0" encoding="utf-8"?>
<!-- Generator: Adobe Illustrator 22.0.1, SVG Export Plug-In . SVG Version: 6.00 Build 0)  -->
<svg version="1.1" id="圖層_1" xmlns="http://www.w3.org/2000/svg" xmlns:xlink="http://www.w3.org/1999/xlink" x="0px" y="0px"
	 viewBox="0 0 100 100" style="enable-background:new 0 0 100 100;" xml:space="preserve">
<style type="text/css">
	.st0{fill:#E40880;}
</style>
<g>
	<path class="st0" d="M100,16.1c0,4.5-3.6,8.2-8.1,8.2H8.1c-4.5,0-8.1-3.7-8.1-8.2v-0.6c0-4.5,3.6-8.2,8.1-8.2h83.8
		c4.5,0,8.1,3.7,8.1,8.2V16.1z"/>
	<path class="st0" d="M100,50.3c0,4.5-3.6,8.2-8.1,8.2H8.1c-4.5,0-8.1-3.7-8.1-8.2v-0.6c0-4.5,3.6-8.2,8.1-8.2h83.8
		c4.5,0,8.1,3.7,8.1,8.2V50.3z"/>
	<path class="st0" d="M100,84.6c0,4.5-3.6,8.2-8.1,8.2H8.1c-4.5,0-8.1-3.7-8.1-8.2v-0.6c0-4.5,3.6-8.2,8.1-8.2h83.8
		c4.5,0,8.1,3.7,8.1,8.2V84.6z"/>
</g>
</svg>
