<?xml version="1.0" encoding="utf-8"?>
<!-- Generator: Adobe Illustrator 22.0.1, SVG Export Plug-In . SVG Version: 6.00 Build 0)  -->
<svg version="1.1" id="圖層_1" xmlns="http://www.w3.org/2000/svg" xmlns:xlink="http://www.w3.org/1999/xlink" x="0px" y="0px"
	 viewBox="0 0 100 100" style="enable-background:new 0 0 100 100;" xml:space="preserve">
<style type="text/css">
	.st0{fill-rule:evenodd;clip-rule:evenodd;fill:#E40880;}
</style>
<g>
	<path class="st0" d="M54.5,3.1c11,0.3,24.8,4.7,35.6,16.2c13.1,14,13.2,32.5,0.3,47c-11.2,12.5-25,21.7-39.7,29.6
		c-0.5,0.3-1,0.4-1.5,0.6c-2.9,1-3.8,0.3-3.5-2.8c0.2-1.6,0.5-3.2,0.8-4.7c0.7-4.1-0.6-5.9-4.7-6.5c-4.5-0.7-8.9-1.6-13.2-3.3
		c-12.2-4.8-22-12.3-26.5-25.1C-2.7,40.4,1,28.5,10.8,18.3C20.4,8.4,34.5,3,54.5,3.1z M50,43c0.2,0,0.4-0.1,0.6-0.2
		c2.9,3.9,5.9,7.8,8.7,11.7c1,1.4,2.1,1.9,3.6,1.5c1.6-0.4,1.8-1.8,1.9-3.2c0-6.1,0-12.1,0-18.2c0-1.9-0.5-3.4-2.8-3.4
		c-2.3,0.1-2.9,1.6-2.9,3.6c0.1,3.2,0,6.5,0,10.5c-3.4-4.6-6.3-8.6-9.2-12.6c-0.9-1.3-2.1-1.7-3.7-1.4c-1.7,0.3-1.8,1.7-1.8,2.9
		c-0.1,6.2-0.1,12.5,0,18.7c0,1.8,0.7,3.2,2.8,3.1c2.2-0.1,2.8-1.5,2.8-3.4C50,49.5,50,46.3,50,43z M68.1,43.7
		C68.1,43.7,68.1,43.7,68.1,43.7c0,2.9,0,5.7,0,8.6c0,3.4,0.5,3.9,3.8,3.9c2.7,0,5.3,0,8,0c1.9,0,3.4-0.5,3.3-2.8
		c0-2.2-1.4-2.7-3.2-2.6c-1.6,0-3.2-0.1-4.8,0c-1.9,0.2-1.7-0.9-1.7-2.1c0-1.1-0.4-2.4,1.6-2.2c1.9,0.1,3.9,0.1,5.9,0
		c1.5-0.1,2.3-1.1,2.2-2.8c0-1.6-0.8-2.5-2.4-2.5c-1.9,0-3.7-0.1-5.6,0c-1.9,0.1-1.7-1-1.7-2.2c0-1.1-0.4-2.4,1.6-2.3
		c1.8,0.1,3.6,0.1,5.3,0c1.7-0.1,2.8-0.9,2.8-2.8c0-1.9-1.2-2.5-2.8-2.5c-3.2-0.1-6.4,0-9.6,0c-2,0-2.8,1.1-2.8,3.1
		C68.1,37.5,68.1,40.6,68.1,43.7z M17.8,43.8c0,3.2,0,6.4,0,9.6c0,1.8,0.9,2.7,2.6,2.8c3.4,0.1,6.8,0,10.2,0c1.8,0,2.7-1.1,2.6-2.7
		c-0.1-1.5-0.9-2.7-2.7-2.7c-1.7,0-3.4-0.1-5.1,0c-1.7,0.1-2.3-0.4-2.2-2.2c0.1-4.7-0.1-9.5,0.1-14.2c0.1-2.2-1.2-2.6-2.8-2.6
		c-1.4,0-2.7,0.5-2.7,2.5C17.9,37.5,17.8,40.7,17.8,43.8z M35.5,43.8c0,3.1,0.1,6.2,0,9.3c0,1.8,0.6,3,2.5,3c2,0.1,2.9-1.1,2.9-3
		c0-6.3,0-12.7,0-19c0-1.9-1-2.8-2.7-2.9c-1.8,0-2.7,0.9-2.7,2.8C35.6,37.4,35.5,40.6,35.5,43.8z"/>
</g>
</svg>
